<svg width="46" height="46" viewBox="0 0 46 46" fill="none" xmlns="http://www.w3.org/2000/svg">
<path fill-rule="evenodd" clip-rule="evenodd" d="M23 0C10.3021 0 0 10.3021 0 23C0 35.6979 10.3021 46 23 46C35.673 46 46 35.6979 46 23C46 10.3021 35.673 0 23 0ZM38.1915 10.6011C41.0233 14.0498 42.5904 18.3634 42.6324 22.8256C41.9846 22.701 35.4986 21.3785 28.9627 22.2027C28.8113 21.8768 28.6867 21.528 28.5372 21.1792C28.1308 20.2197 27.6987 19.2712 27.2416 18.3348C34.4751 15.3908 37.7679 11.1512 38.1915 10.6011ZM23 3.39442C27.9891 3.39442 32.5546 5.26317 36.0218 8.33175C35.673 8.83008 32.7041 12.7976 25.7197 15.4158C22.4997 9.50475 18.9347 4.66325 18.3847 3.91575C19.8975 3.56249 21.4464 3.38688 23 3.3925V3.39442ZM14.6433 5.23825C15.1666 5.93783 18.6587 10.8023 21.9267 16.5887C12.7458 19.0344 4.63833 18.9846 3.76625 18.9846C5.03892 12.8972 9.15592 7.83342 14.6433 5.23825ZM3.34267 23.0249V22.4269C4.19175 22.4518 13.7195 22.5764 23.5252 19.6324C24.0982 20.7307 24.6215 21.8519 25.1198 22.9751C24.8707 23.0498 24.5966 23.1246 24.3474 23.1993C14.2198 26.4672 8.83008 35.397 8.38158 36.1464C5.13745 32.546 3.34228 27.8713 3.34267 23.0249ZM23 42.6573C18.4594 42.6573 14.2696 41.1106 10.9518 38.5173C11.3007 37.7928 15.2912 30.1089 26.3676 26.243C26.4174 26.2181 26.4442 26.2181 26.4922 26.1932C29.2617 33.3519 30.383 39.3645 30.6839 41.0857C28.313 42.1092 25.7197 42.6573 23 42.6573ZM33.9518 39.2897C33.7525 38.0918 32.7041 32.3552 30.1338 25.2942C36.2959 24.3225 41.6837 25.9191 42.3583 26.1433C41.5093 31.6058 38.3659 36.3208 33.9518 39.2897Z" fill="#8F8C8E"/>
</svg>
