<svg width="40" height="44" viewBox="0 0 40 44" fill="none" xmlns="http://www.w3.org/2000/svg">
<path d="M37.3171 9.07592C39.0613 11.1689 39.9314 13.6108 39.9314 16.4014C39.9314 26.5157 34.1776 29.4808 28.7707 30.3528C29.4683 31.5738 29.6428 32.9691 29.6428 34.3644V41.5136C29.6428 42.3857 29.1195 42.9089 28.4218 42.9089C28.2379 42.9115 28.0553 42.8772 27.8848 42.808C27.7144 42.7388 27.5595 42.6361 27.4294 42.506C27.2994 42.3759 27.1967 42.2211 27.1275 42.0506C27.0583 41.8801 27.0239 41.6975 27.0265 41.5136V34.3644C27.1184 33.6335 27.0402 32.8912 26.7982 32.1954C26.5562 31.4996 26.1568 30.869 25.6312 30.3528L26.5033 28.0854C31.9102 27.3878 37.4915 25.6436 37.4915 16.227C37.4915 13.9596 36.6194 11.8666 35.0497 10.1224L34.7008 8.72901C35.3641 7.05777 35.4251 5.2078 34.8733 3.49651C34.0032 3.66901 32.259 4.01976 29.2958 6.11276L28.2474 6.28526C24.1281 5.23926 19.8126 5.23926 15.6933 6.28526L14.6448 6.11276C11.5092 4.19417 9.765 3.67092 8.891 3.67092C8.36775 5.41509 8.36775 7.33176 9.0635 8.90342L8.71658 10.2968C6.97242 12.041 6.10033 14.3084 6.10033 16.4014C6.10033 25.6436 11.3328 27.5622 17.0867 28.2598L17.7843 30.5273C16.7378 31.5738 16.2146 32.9691 16.389 34.3644V41.688C16.3916 41.872 16.3573 42.0546 16.288 42.225C16.2188 42.3955 16.1162 42.5503 15.9861 42.6804C15.856 42.8105 15.7011 42.9132 15.5307 42.9824C15.3602 43.0516 15.1776 43.0859 14.9937 43.0833C14.8097 43.0859 14.6271 43.0516 14.4567 42.9824C14.2862 42.9132 14.1314 42.8105 14.0013 42.6804C13.8712 42.5503 13.7685 42.3955 13.6993 42.225C13.6301 42.0546 13.5958 41.872 13.5983 41.688V37.6783C7.8445 38.8993 5.57708 35.9342 3.83292 33.6687C2.96083 32.6222 2.26317 31.7501 1.39108 31.5757C1.21858 31.4013 0.693416 30.7036 0.867833 30.0059C1.04225 29.3083 1.73992 28.785 2.4395 29.1338C4.18367 29.4827 5.22825 30.878 6.27283 32.0989C7.8445 34.1919 9.41425 36.1086 14.1216 35.064V34.3663C13.9491 32.971 14.296 31.5757 14.9937 30.3548C9.76117 29.3083 3.6585 26.3432 3.6585 16.4033C3.6585 13.6127 4.53058 11.1708 6.27475 9.07784C5.7515 6.63792 5.92592 4.02167 6.798 1.92867L7.67008 1.23101C8.01892 1.05659 10.4607 0.533341 15.515 3.67092C19.694 2.62456 24.0665 2.62456 28.2455 3.67092C33.1311 0.357008 35.7473 0.878341 36.0962 1.05467L36.9683 1.75234C37.8403 4.19417 38.0148 6.63601 37.3171 9.07592Z" fill="#8F8C8E"/>
</svg>
