<svg width="36" height="35" viewBox="0 0 36 35" fill="none" xmlns="http://www.w3.org/2000/svg">
<path d="M17.5 12.3042C19.2958 10.5083 21.634 9.33337 24.3542 9.33337C27.2108 9.33337 29.9504 10.444 31.9703 12.421C33.9902 14.3979 35.125 17.0792 35.125 19.875V34.25H31.2083V19.875C31.2083 18.0959 30.4862 16.3896 29.2008 15.1315C27.9154 13.8735 26.172 13.1667 24.3542 13.1667C22.5363 13.1667 20.7929 13.8735 19.5075 15.1315C18.2221 16.3896 17.5 18.0959 17.5 19.875V34.25H13.5833V10.2917H17.5V12.3042ZM3.79167 6.45837C3.01259 6.45837 2.26543 6.15547 1.71454 5.61631C1.16365 5.07714 0.854168 4.34587 0.854168 3.58337C0.854168 2.82088 1.16365 2.08961 1.71454 1.55044C2.26543 1.01127 3.01259 0.708374 3.79167 0.708374C4.57074 0.708374 5.31791 1.01127 5.86879 1.55044C6.41968 2.08961 6.72917 2.82088 6.72917 3.58337C6.72917 4.34587 6.41968 5.07714 5.86879 5.61631C5.31791 6.15547 4.57074 6.45837 3.79167 6.45837ZM1.83333 10.2917H5.75V34.25H1.83333V10.2917Z" fill="#8F8C8E"/>
</svg>
