<svg width="65" height="46" viewBox="0 0 65 46" fill="none" xmlns="http://www.w3.org/2000/svg">
<path d="M62.6786 0H2.32143C1.03739 0 0 0.934375 0 2.09091V43.9091C0 45.0656 1.03739 46 2.32143 46H62.6786C63.9626 46 65 45.0656 65 43.9091V2.09091C65 0.934375 63.9626 0 62.6786 0ZM59.7768 7.23977V41.2955H5.22321V7.23977L3.22098 5.83494L6.07199 2.53523L9.1769 4.71108H55.8304L58.9353 2.53523L61.7863 5.83494L59.7768 7.23977V7.23977ZM55.8304 4.70455L32.5 21.0398L9.16964 4.70455L6.06473 2.52869L3.21373 5.82841L5.21596 7.23324L29.9972 24.5878C30.7099 25.0865 31.5866 25.3572 32.4891 25.3572C33.3916 25.3572 34.2684 25.0865 34.981 24.5878L59.7768 7.23977L61.779 5.83494L58.928 2.53523L55.8304 4.70455Z" fill="#8F8C8E"/>
</svg>
